<svg width="52" height="55" viewBox="0 0 52 55" fill="none" xmlns="http://www.w3.org/2000/svg">
<path fill-rule="evenodd" clip-rule="evenodd" d="M17.1106 51.3024C12.2275 49.9578 7.11506 49.2795 2.15568 48.6582C1.08751 48.5279 0.0957806 49.2548 0.0194824 50.279C-0.133114 51.3038 0.630315 52.2411 1.62219 52.3714C6.42898 52.9696 11.3879 53.6096 16.0421 54.904C17.034 55.1848 18.1026 54.6068 18.4078 53.6126C18.713 52.6192 18.1024 51.5838 17.1106 51.3024Z" fill="#BA7657"/>
<path fill-rule="evenodd" clip-rule="evenodd" d="M31.9118 32.24C24.0531 24.371 15.2025 17.515 7.49638 9.43499C6.8097 8.68036 5.58893 8.63993 4.82595 9.3444C4.06297 10.0496 3.98697 11.2355 4.74995 11.9901C12.4561 20.0933 21.3067 26.9718 29.1654 34.8639C29.9284 35.6006 31.1488 35.6111 31.9118 34.8864C32.5985 34.1625 32.6748 32.9766 31.9118 32.24Z" fill="#BA7657"/>
<path fill-rule="evenodd" clip-rule="evenodd" d="M46.6384 1.97323C46.8673 6.47702 47.0957 10.9808 47.3246 15.4854C47.3246 16.517 48.2406 17.3135 49.3088 17.2634C50.377 17.2125 51.1395 16.3343 51.1395 15.302C50.9106 10.7907 50.6822 6.28013 50.4533 1.7696C50.377 0.737974 49.4613 -0.0533352 48.3931 0.0028125C47.4012 0.0589602 46.5621 0.942354 46.6384 1.97323Z" fill="#BA7657"/>
</svg>
